<?xml version="1.0" encoding="UTF-8" standalone="no"?>
<!DOCTYPE svg PUBLIC "-//W3C//DTD SVG 1.1//EN"
 "http://www.w3.org/Graphics/SVG/1.1/DTD/svg11.dtd">
<!-- Generated by graphviz version 5.0.0 (20220707.1540)
 -->
<!-- Title: dependencies Pages: 1 -->
<svg width="350pt" height="174pt"
 viewBox="0.00 0.00 350.00 173.80" xmlns="http://www.w3.org/2000/svg" xmlns:xlink="http://www.w3.org/1999/xlink">
<g id="graph0" class="graph" transform="scale(1 1) rotate(0) translate(4 169.8)">
<title>dependencies</title>
<polygon fill="white" stroke="transparent" points="-4,4 -4,-169.8 346,-169.8 346,4 -4,4"/>
<text text-anchor="middle" x="171" y="-8.2" font-family="sans-serif" font-size="14.00">dependencies</text>
<g id="clust1" class="cluster">
<title>cluster_FacultyModule</title>
<polygon fill="none" stroke="black" stroke-dasharray="1,5" points="8,-32.8 8,-157.8 334,-157.8 334,-32.8 8,-32.8"/>
</g>
<g id="clust4" class="cluster">
<title>cluster_FacultyModule_imports</title>
<polygon fill="none" stroke="black" points="164,-40.8 164,-92.8 326,-92.8 326,-40.8 164,-40.8"/>
</g>
<g id="clust2" class="cluster">
<title>cluster_FacultyModule_declarations</title>
<polygon fill="none" stroke="black" points="16,-40.8 16,-92.8 156,-92.8 156,-40.8 16,-40.8"/>
</g>
<!-- FacultyComponent -->
<g id="node1" class="node">
<title>FacultyComponent</title>
<polygon fill="#ffffb3" stroke="black" points="147.82,-84.8 24.18,-84.8 24.18,-48.8 147.82,-48.8 147.82,-84.8"/>
<text text-anchor="middle" x="86" y="-62.6" font-family="Times,serif" font-size="14.00">FacultyComponent</text>
</g>
<!-- FacultyModule -->
<g id="node2" class="node">
<title>FacultyModule</title>
<polygon fill="#8dd3c7" stroke="black" points="215.55,-149.8 212.55,-153.8 191.55,-153.8 188.55,-149.8 114.45,-149.8 114.45,-113.8 215.55,-113.8 215.55,-149.8"/>
<text text-anchor="middle" x="165" y="-127.6" font-family="Times,serif" font-size="14.00">FacultyModule</text>
</g>
<!-- FacultyComponent&#45;&gt;FacultyModule -->
<g id="edge1" class="edge">
<title>FacultyComponent&#45;&gt;FacultyModule</title>
<path fill="none" stroke="black" d="M130.94,-84.91C130.94,-84.91 130.94,-103.79 130.94,-103.79"/>
<polygon fill="black" stroke="black" points="127.44,-103.79 130.94,-113.79 134.44,-103.79 127.44,-103.79"/>
</g>
<!-- FacultyRoutingModule -->
<g id="node3" class="node">
<title>FacultyRoutingModule</title>
<polygon fill="#8dd3c7" stroke="black" points="318.16,-84.8 315.16,-88.8 294.16,-88.8 291.16,-84.8 171.84,-84.8 171.84,-48.8 318.16,-48.8 318.16,-84.8"/>
<text text-anchor="middle" x="245" y="-62.6" font-family="Times,serif" font-size="14.00">FacultyRoutingModule</text>
</g>
<!-- FacultyRoutingModule&#45;&gt;FacultyModule -->
<g id="edge2" class="edge">
<title>FacultyRoutingModule&#45;&gt;FacultyModule</title>
<path fill="none" stroke="black" d="M193.72,-84.91C193.72,-84.91 193.72,-103.79 193.72,-103.79"/>
<polygon fill="black" stroke="black" points="190.22,-103.79 193.72,-113.79 197.22,-103.79 190.22,-103.79"/>
</g>
</g>
</svg>
