<?xml version="1.0" encoding="UTF-8" standalone="no"?>
<!DOCTYPE svg PUBLIC "-//W3C//DTD SVG 1.1//EN"
 "http://www.w3.org/Graphics/SVG/1.1/DTD/svg11.dtd">
<!-- Generated by graphviz version 5.0.0 (20220707.1540)
 -->
<!-- Title: dependencies Pages: 1 -->
<svg width="1075pt" height="247pt"
 viewBox="0.00 0.00 1075.00 246.80" xmlns="http://www.w3.org/2000/svg" xmlns:xlink="http://www.w3.org/1999/xlink">
<g id="graph0" class="graph" transform="scale(1 1) rotate(0) translate(4 242.8)">
<title>dependencies</title>
<polygon fill="white" stroke="transparent" points="-4,4 -4,-242.8 1071,-242.8 1071,4 -4,4"/>
<text text-anchor="middle" x="533.5" y="-8.2" font-family="sans-serif" font-size="14.00">dependencies</text>
<g id="clust1" class="cluster">
<title>cluster_AppModule</title>
<polygon fill="none" stroke="black" stroke-dasharray="1,5" points="8,-32.8 8,-230.8 1059,-230.8 1059,-32.8 8,-32.8"/>
</g>
<g id="clust2" class="cluster">
<title>cluster_AppModule_declarations</title>
<polygon fill="none" stroke="black" points="338,-40.8 338,-92.8 1051,-92.8 1051,-40.8 338,-40.8"/>
</g>
<g id="clust11" class="cluster">
<title>cluster_AppModule_providers</title>
<polygon fill="none" stroke="black" points="168,-40.8 168,-92.8 330,-92.8 330,-40.8 168,-40.8"/>
</g>
<g id="clust8" class="cluster">
<title>cluster_AppModule_imports</title>
<polygon fill="none" stroke="black" points="16,-40.8 16,-92.8 160,-92.8 160,-40.8 16,-40.8"/>
</g>
<g id="clust10" class="cluster">
<title>cluster_AppModule_bootstrap</title>
<polygon fill="none" stroke="black" points="524,-170.8 524,-222.8 648,-222.8 648,-170.8 524,-170.8"/>
</g>
<!-- AppComponent -->
<g id="node1" class="node">
<title>AppComponent</title>
<polygon fill="#ffffb3" stroke="black" points="1042.94,-84.8 937.06,-84.8 937.06,-48.8 1042.94,-48.8 1042.94,-84.8"/>
<text text-anchor="middle" x="990" y="-62.6" font-family="Times,serif" font-size="14.00">AppComponent</text>
</g>
<!-- AppModule -->
<g id="node6" class="node">
<title>AppModule</title>
<polygon fill="#8dd3c7" stroke="black" points="627.66,-149.8 624.66,-153.8 603.66,-153.8 600.66,-149.8 544.34,-149.8 544.34,-113.8 627.66,-113.8 627.66,-149.8"/>
<text text-anchor="middle" x="586" y="-127.6" font-family="Times,serif" font-size="14.00">AppModule</text>
</g>
<!-- AppComponent&#45;&gt;AppModule -->
<g id="edge1" class="edge">
<title>AppComponent&#45;&gt;AppModule</title>
<path fill="none" stroke="black" d="M990,-85.09C990,-107.01 990,-140.8 990,-140.8 990,-140.8 637.71,-140.8 637.71,-140.8"/>
<polygon fill="black" stroke="black" points="637.71,-137.3 627.71,-140.8 637.71,-144.3 637.71,-137.3"/>
</g>
<!-- CourseComponent -->
<g id="node2" class="node">
<title>CourseComponent</title>
<polygon fill="#ffffb3" stroke="black" points="919.49,-84.8 798.51,-84.8 798.51,-48.8 919.49,-48.8 919.49,-84.8"/>
<text text-anchor="middle" x="859" y="-62.6" font-family="Times,serif" font-size="14.00">CourseComponent</text>
</g>
<!-- CourseComponent&#45;&gt;AppModule -->
<g id="edge2" class="edge">
<title>CourseComponent&#45;&gt;AppModule</title>
<path fill="none" stroke="black" d="M859,-84.91C859,-104.14 859,-131.8 859,-131.8 859,-131.8 637.76,-131.8 637.76,-131.8"/>
<polygon fill="black" stroke="black" points="637.76,-128.3 627.76,-131.8 637.76,-135.3 637.76,-128.3"/>
</g>
<!-- LoginComponent -->
<g id="node3" class="node">
<title>LoginComponent</title>
<polygon fill="#ffffb3" stroke="black" points="780.27,-84.8 665.73,-84.8 665.73,-48.8 780.27,-48.8 780.27,-84.8"/>
<text text-anchor="middle" x="723" y="-62.6" font-family="Times,serif" font-size="14.00">LoginComponent</text>
</g>
<!-- LoginComponent&#45;&gt;AppModule -->
<g id="edge3" class="edge">
<title>LoginComponent&#45;&gt;AppModule</title>
<path fill="none" stroke="black" d="M723,-84.83C723,-101.2 723,-122.8 723,-122.8 723,-122.8 637.85,-122.8 637.85,-122.8"/>
<polygon fill="black" stroke="black" points="637.85,-119.3 627.85,-122.8 637.85,-126.3 637.85,-119.3"/>
</g>
<!-- SidebarComponent -->
<g id="node4" class="node">
<title>SidebarComponent</title>
<polygon fill="#ffffb3" stroke="black" points="648.1,-84.8 523.9,-84.8 523.9,-48.8 648.1,-48.8 648.1,-84.8"/>
<text text-anchor="middle" x="586" y="-62.6" font-family="Times,serif" font-size="14.00">SidebarComponent</text>
</g>
<!-- SidebarComponent&#45;&gt;AppModule -->
<g id="edge4" class="edge">
<title>SidebarComponent&#45;&gt;AppModule</title>
<path fill="none" stroke="black" d="M586,-84.91C586,-84.91 586,-103.79 586,-103.79"/>
<polygon fill="black" stroke="black" points="582.5,-103.79 586,-113.79 589.5,-103.79 582.5,-103.79"/>
</g>
<!-- StudentdetailsComponent -->
<g id="node5" class="node">
<title>StudentdetailsComponent</title>
<polygon fill="#ffffb3" stroke="black" points="506.16,-84.8 345.84,-84.8 345.84,-48.8 506.16,-48.8 506.16,-84.8"/>
<text text-anchor="middle" x="426" y="-62.6" font-family="Times,serif" font-size="14.00">StudentdetailsComponent</text>
</g>
<!-- StudentdetailsComponent&#45;&gt;AppModule -->
<g id="edge5" class="edge">
<title>StudentdetailsComponent&#45;&gt;AppModule</title>
<path fill="none" stroke="black" d="M426,-84.83C426,-101.2 426,-122.8 426,-122.8 426,-122.8 533.96,-122.8 533.96,-122.8"/>
<polygon fill="black" stroke="black" points="533.96,-126.3 543.96,-122.8 533.96,-119.3 533.96,-126.3"/>
</g>
<!-- AppComponent  -->
<g id="node8" class="node">
<title>AppComponent </title>
<polygon fill="#80b1d3" stroke="black" points="640.44,-214.8 531.56,-214.8 531.56,-178.8 640.44,-178.8 640.44,-214.8"/>
<text text-anchor="middle" x="586" y="-192.6" font-family="Times,serif" font-size="14.00">AppComponent </text>
</g>
<!-- AppModule&#45;&gt;AppComponent  -->
<g id="edge7" class="edge">
<title>AppModule&#45;&gt;AppComponent </title>
<path fill="none" stroke="black" stroke-dasharray="1,5" d="M586,-149.91C586,-149.91 586,-168.79 586,-168.79"/>
<polygon fill="black" stroke="black" points="582.5,-168.79 586,-178.79 589.5,-168.79 582.5,-168.79"/>
</g>
<!-- AppRoutingModule -->
<g id="node7" class="node">
<title>AppRoutingModule</title>
<polygon fill="#8dd3c7" stroke="black" points="152.28,-84.8 149.28,-88.8 128.28,-88.8 125.28,-84.8 23.72,-84.8 23.72,-48.8 152.28,-48.8 152.28,-84.8"/>
<text text-anchor="middle" x="88" y="-62.6" font-family="Times,serif" font-size="14.00">AppRoutingModule</text>
</g>
<!-- AppRoutingModule&#45;&gt;AppModule -->
<g id="edge6" class="edge">
<title>AppRoutingModule&#45;&gt;AppModule</title>
<path fill="none" stroke="black" d="M88,-85.09C88,-107.01 88,-140.8 88,-140.8 88,-140.8 533.97,-140.8 533.97,-140.8"/>
<polygon fill="black" stroke="black" points="533.97,-144.3 543.97,-140.8 533.97,-137.3 533.97,-144.3"/>
</g>
<!-- AuthInterceptor -->
<g id="node9" class="node">
<title>AuthInterceptor</title>
<ellipse fill="#fdb462" stroke="black" cx="249" cy="-66.8" rx="72.92" ry="18"/>
<text text-anchor="middle" x="249" y="-62.6" font-family="Times,serif" font-size="14.00">AuthInterceptor</text>
</g>
<!-- AuthInterceptor&#45;&gt;AppModule -->
<g id="edge8" class="edge">
<title>AuthInterceptor&#45;&gt;AppModule</title>
<path fill="none" stroke="black" d="M249,-84.91C249,-104.14 249,-131.8 249,-131.8 249,-131.8 534,-131.8 534,-131.8"/>
<polygon fill="black" stroke="black" points="534,-135.3 544,-131.8 534,-128.3 534,-135.3"/>
</g>
</g>
</svg>
