<?xml version="1.0" encoding="UTF-8" standalone="no"?>
<!DOCTYPE svg PUBLIC "-//W3C//DTD SVG 1.1//EN"
 "http://www.w3.org/Graphics/SVG/1.1/DTD/svg11.dtd">
<!-- Generated by graphviz version 5.0.0 (20220707.1540)
 -->
<!-- Title: dependencies Pages: 1 -->
<svg width="1897pt" height="247pt"
 viewBox="0.00 0.00 1897.00 246.80" xmlns="http://www.w3.org/2000/svg" xmlns:xlink="http://www.w3.org/1999/xlink">
<g id="graph0" class="graph" transform="scale(1 1) rotate(0) translate(4 242.8)">
<title>dependencies</title>
<polygon fill="white" stroke="transparent" points="-4,4 -4,-242.8 1893,-242.8 1893,4 -4,4"/>
<text text-anchor="middle" x="944.5" y="-8.2" font-family="sans-serif" font-size="14.00">dependencies</text>
<g id="clust1" class="cluster">
<title>cluster_AdminModule</title>
<polygon fill="none" stroke="black" stroke-dasharray="1,5" points="8,-32.8 8,-157.8 488,-157.8 488,-32.8 8,-32.8"/>
</g>
<g id="clust2" class="cluster">
<title>cluster_AdminModule_declarations</title>
<polygon fill="none" stroke="black" points="184,-40.8 184,-92.8 480,-92.8 480,-40.8 184,-40.8"/>
</g>
<g id="clust5" class="cluster">
<title>cluster_AdminModule_imports</title>
<polygon fill="none" stroke="black" points="16,-40.8 16,-92.8 176,-92.8 176,-40.8 16,-40.8"/>
</g>
<g id="clust15" class="cluster">
<title>cluster_AppModule</title>
<polygon fill="none" stroke="black" stroke-dasharray="1,5" points="496,-32.8 496,-230.8 1547,-230.8 1547,-32.8 496,-32.8"/>
</g>
<g id="clust16" class="cluster">
<title>cluster_AppModule_declarations</title>
<polygon fill="none" stroke="black" points="826,-40.8 826,-92.8 1539,-92.8 1539,-40.8 826,-40.8"/>
</g>
<g id="clust22" class="cluster">
<title>cluster_AppModule_imports</title>
<polygon fill="none" stroke="black" points="674,-40.8 674,-92.8 818,-92.8 818,-40.8 674,-40.8"/>
</g>
<g id="clust24" class="cluster">
<title>cluster_AppModule_bootstrap</title>
<polygon fill="none" stroke="black" points="1012,-170.8 1012,-222.8 1136,-222.8 1136,-170.8 1012,-170.8"/>
</g>
<g id="clust25" class="cluster">
<title>cluster_AppModule_providers</title>
<polygon fill="none" stroke="black" points="504,-40.8 504,-92.8 666,-92.8 666,-40.8 504,-40.8"/>
</g>
<g id="clust32" class="cluster">
<title>cluster_FacultyModule</title>
<polygon fill="none" stroke="black" stroke-dasharray="1,5" points="1555,-32.8 1555,-157.8 1881,-157.8 1881,-32.8 1555,-32.8"/>
</g>
<g id="clust33" class="cluster">
<title>cluster_FacultyModule_declarations</title>
<polygon fill="none" stroke="black" points="1733,-40.8 1733,-92.8 1873,-92.8 1873,-40.8 1733,-40.8"/>
</g>
<g id="clust35" class="cluster">
<title>cluster_FacultyModule_imports</title>
<polygon fill="none" stroke="black" points="1563,-40.8 1563,-92.8 1725,-92.8 1725,-40.8 1563,-40.8"/>
</g>
<!-- AdminComponent -->
<g id="node1" class="node">
<title>AdminComponent</title>
<polygon fill="#ffffb3" stroke="black" points="472.22,-84.8 351.78,-84.8 351.78,-48.8 472.22,-48.8 472.22,-84.8"/>
<text text-anchor="middle" x="412" y="-62.6" font-family="Times,serif" font-size="14.00">AdminComponent</text>
</g>
<!-- AdminModule -->
<g id="node3" class="node">
<title>AdminModule</title>
<polygon fill="#8dd3c7" stroke="black" points="312.44,-149.8 309.44,-153.8 288.44,-153.8 285.44,-149.8 213.56,-149.8 213.56,-113.8 312.44,-113.8 312.44,-149.8"/>
<text text-anchor="middle" x="263" y="-127.6" font-family="Times,serif" font-size="14.00">AdminModule</text>
</g>
<!-- AdminComponent&#45;&gt;AdminModule -->
<g id="edge1" class="edge">
<title>AdminComponent&#45;&gt;AdminModule</title>
<path fill="none" stroke="black" d="M412,-84.81C412,-107.29 412,-142.8 412,-142.8 412,-142.8 322.61,-142.8 322.61,-142.8"/>
<polygon fill="black" stroke="black" points="322.61,-139.3 312.61,-142.8 322.61,-146.3 322.61,-139.3"/>
</g>
<!-- DashboardComponent -->
<g id="node2" class="node">
<title>DashboardComponent</title>
<polygon fill="#ffffb3" stroke="black" points="333.98,-84.8 192.02,-84.8 192.02,-48.8 333.98,-48.8 333.98,-84.8"/>
<text text-anchor="middle" x="263" y="-62.6" font-family="Times,serif" font-size="14.00">DashboardComponent</text>
</g>
<!-- DashboardComponent&#45;&gt;AdminModule -->
<g id="edge2" class="edge">
<title>DashboardComponent&#45;&gt;AdminModule</title>
<path fill="none" stroke="black" d="M263,-84.91C263,-84.91 263,-103.79 263,-103.79"/>
<polygon fill="black" stroke="black" points="259.5,-103.79 263,-113.79 266.5,-103.79 259.5,-103.79"/>
</g>
<!-- AdminRoutingModule -->
<g id="node4" class="node">
<title>AdminRoutingModule</title>
<polygon fill="#8dd3c7" stroke="black" points="167.56,-84.8 164.56,-88.8 143.56,-88.8 140.56,-84.8 24.44,-84.8 24.44,-48.8 167.56,-48.8 167.56,-84.8"/>
<text text-anchor="middle" x="96" y="-62.6" font-family="Times,serif" font-size="14.00">AdminRoutingModule</text>
</g>
<!-- AdminRoutingModule&#45;&gt;AdminModule -->
<g id="edge3" class="edge">
<title>AdminRoutingModule&#45;&gt;AdminModule</title>
<path fill="none" stroke="black" d="M96,-84.91C96,-104.14 96,-131.8 96,-131.8 96,-131.8 203.35,-131.8 203.35,-131.8"/>
<polygon fill="black" stroke="black" points="203.35,-135.3 213.35,-131.8 203.35,-128.3 203.35,-135.3"/>
</g>
<!-- AppComponent -->
<g id="node5" class="node">
<title>AppComponent</title>
<polygon fill="#ffffb3" stroke="black" points="1530.94,-84.8 1425.06,-84.8 1425.06,-48.8 1530.94,-48.8 1530.94,-84.8"/>
<text text-anchor="middle" x="1478" y="-62.6" font-family="Times,serif" font-size="14.00">AppComponent</text>
</g>
<!-- AppModule -->
<g id="node10" class="node">
<title>AppModule</title>
<polygon fill="#8dd3c7" stroke="black" points="1115.66,-149.8 1112.66,-153.8 1091.66,-153.8 1088.66,-149.8 1032.34,-149.8 1032.34,-113.8 1115.66,-113.8 1115.66,-149.8"/>
<text text-anchor="middle" x="1074" y="-127.6" font-family="Times,serif" font-size="14.00">AppModule</text>
</g>
<!-- AppComponent&#45;&gt;AppModule -->
<g id="edge4" class="edge">
<title>AppComponent&#45;&gt;AppModule</title>
<path fill="none" stroke="black" d="M1478,-85.09C1478,-107.01 1478,-140.8 1478,-140.8 1478,-140.8 1125.71,-140.8 1125.71,-140.8"/>
<polygon fill="black" stroke="black" points="1125.71,-137.3 1115.71,-140.8 1125.71,-144.3 1125.71,-137.3"/>
</g>
<!-- CourseComponent -->
<g id="node6" class="node">
<title>CourseComponent</title>
<polygon fill="#ffffb3" stroke="black" points="1407.49,-84.8 1286.51,-84.8 1286.51,-48.8 1407.49,-48.8 1407.49,-84.8"/>
<text text-anchor="middle" x="1347" y="-62.6" font-family="Times,serif" font-size="14.00">CourseComponent</text>
</g>
<!-- CourseComponent&#45;&gt;AppModule -->
<g id="edge5" class="edge">
<title>CourseComponent&#45;&gt;AppModule</title>
<path fill="none" stroke="black" d="M1347,-84.91C1347,-104.14 1347,-131.8 1347,-131.8 1347,-131.8 1125.76,-131.8 1125.76,-131.8"/>
<polygon fill="black" stroke="black" points="1125.76,-128.3 1115.76,-131.8 1125.76,-135.3 1125.76,-128.3"/>
</g>
<!-- LoginComponent -->
<g id="node7" class="node">
<title>LoginComponent</title>
<polygon fill="#ffffb3" stroke="black" points="1268.27,-84.8 1153.73,-84.8 1153.73,-48.8 1268.27,-48.8 1268.27,-84.8"/>
<text text-anchor="middle" x="1211" y="-62.6" font-family="Times,serif" font-size="14.00">LoginComponent</text>
</g>
<!-- LoginComponent&#45;&gt;AppModule -->
<g id="edge6" class="edge">
<title>LoginComponent&#45;&gt;AppModule</title>
<path fill="none" stroke="black" d="M1211,-84.83C1211,-101.2 1211,-122.8 1211,-122.8 1211,-122.8 1125.85,-122.8 1125.85,-122.8"/>
<polygon fill="black" stroke="black" points="1125.85,-119.3 1115.85,-122.8 1125.85,-126.3 1125.85,-119.3"/>
</g>
<!-- SidebarComponent -->
<g id="node8" class="node">
<title>SidebarComponent</title>
<polygon fill="#ffffb3" stroke="black" points="1136.1,-84.8 1011.9,-84.8 1011.9,-48.8 1136.1,-48.8 1136.1,-84.8"/>
<text text-anchor="middle" x="1074" y="-62.6" font-family="Times,serif" font-size="14.00">SidebarComponent</text>
</g>
<!-- SidebarComponent&#45;&gt;AppModule -->
<g id="edge7" class="edge">
<title>SidebarComponent&#45;&gt;AppModule</title>
<path fill="none" stroke="black" d="M1074,-84.91C1074,-84.91 1074,-103.79 1074,-103.79"/>
<polygon fill="black" stroke="black" points="1070.5,-103.79 1074,-113.79 1077.5,-103.79 1070.5,-103.79"/>
</g>
<!-- StudentdetailsComponent -->
<g id="node9" class="node">
<title>StudentdetailsComponent</title>
<polygon fill="#ffffb3" stroke="black" points="994.16,-84.8 833.84,-84.8 833.84,-48.8 994.16,-48.8 994.16,-84.8"/>
<text text-anchor="middle" x="914" y="-62.6" font-family="Times,serif" font-size="14.00">StudentdetailsComponent</text>
</g>
<!-- StudentdetailsComponent&#45;&gt;AppModule -->
<g id="edge8" class="edge">
<title>StudentdetailsComponent&#45;&gt;AppModule</title>
<path fill="none" stroke="black" d="M914,-84.81C914,-100.85 914,-121.8 914,-121.8 914,-121.8 1021.96,-121.8 1021.96,-121.8"/>
<polygon fill="black" stroke="black" points="1021.96,-125.3 1031.96,-121.8 1021.96,-118.3 1021.96,-125.3"/>
</g>
<!-- AppComponent  -->
<g id="node12" class="node">
<title>AppComponent </title>
<polygon fill="#80b1d3" stroke="black" points="1128.44,-214.8 1019.56,-214.8 1019.56,-178.8 1128.44,-178.8 1128.44,-214.8"/>
<text text-anchor="middle" x="1074" y="-192.6" font-family="Times,serif" font-size="14.00">AppComponent </text>
</g>
<!-- AppModule&#45;&gt;AppComponent  -->
<g id="edge10" class="edge">
<title>AppModule&#45;&gt;AppComponent </title>
<path fill="none" stroke="black" stroke-dasharray="1,5" d="M1074,-149.91C1074,-149.91 1074,-168.79 1074,-168.79"/>
<polygon fill="black" stroke="black" points="1070.5,-168.79 1074,-178.79 1077.5,-168.79 1070.5,-168.79"/>
</g>
<!-- AppRoutingModule -->
<g id="node11" class="node">
<title>AppRoutingModule</title>
<polygon fill="#8dd3c7" stroke="black" points="810.28,-84.8 807.28,-88.8 786.28,-88.8 783.28,-84.8 681.72,-84.8 681.72,-48.8 810.28,-48.8 810.28,-84.8"/>
<text text-anchor="middle" x="746" y="-62.6" font-family="Times,serif" font-size="14.00">AppRoutingModule</text>
</g>
<!-- AppRoutingModule&#45;&gt;AppModule -->
<g id="edge9" class="edge">
<title>AppRoutingModule&#45;&gt;AppModule</title>
<path fill="none" stroke="black" d="M746,-85.07C746,-103.36 746,-128.8 746,-128.8 746,-128.8 1022.13,-128.8 1022.13,-128.8"/>
<polygon fill="black" stroke="black" points="1022.13,-132.3 1032.13,-128.8 1022.13,-125.3 1022.13,-132.3"/>
</g>
<!-- AuthInterceptor -->
<g id="node13" class="node">
<title>AuthInterceptor</title>
<ellipse fill="#fdb462" stroke="black" cx="585" cy="-66.8" rx="72.92" ry="18"/>
<text text-anchor="middle" x="585" y="-62.6" font-family="Times,serif" font-size="14.00">AuthInterceptor</text>
</g>
<!-- AuthInterceptor&#45;&gt;AppModule -->
<g id="edge11" class="edge">
<title>AuthInterceptor&#45;&gt;AppModule</title>
<path fill="none" stroke="black" d="M585,-84.93C585,-105.37 585,-135.8 585,-135.8 585,-135.8 1022.31,-135.8 1022.31,-135.8"/>
<polygon fill="black" stroke="black" points="1022.31,-139.3 1032.31,-135.8 1022.31,-132.3 1022.31,-139.3"/>
</g>
<!-- FacultyComponent -->
<g id="node14" class="node">
<title>FacultyComponent</title>
<polygon fill="#ffffb3" stroke="black" points="1864.82,-84.8 1741.18,-84.8 1741.18,-48.8 1864.82,-48.8 1864.82,-84.8"/>
<text text-anchor="middle" x="1803" y="-62.6" font-family="Times,serif" font-size="14.00">FacultyComponent</text>
</g>
<!-- FacultyModule -->
<g id="node15" class="node">
<title>FacultyModule</title>
<polygon fill="#8dd3c7" stroke="black" points="1773.55,-149.8 1770.55,-153.8 1749.55,-153.8 1746.55,-149.8 1672.45,-149.8 1672.45,-113.8 1773.55,-113.8 1773.55,-149.8"/>
<text text-anchor="middle" x="1723" y="-127.6" font-family="Times,serif" font-size="14.00">FacultyModule</text>
</g>
<!-- FacultyComponent&#45;&gt;FacultyModule -->
<g id="edge12" class="edge">
<title>FacultyComponent&#45;&gt;FacultyModule</title>
<path fill="none" stroke="black" d="M1757.56,-84.91C1757.56,-84.91 1757.56,-103.79 1757.56,-103.79"/>
<polygon fill="black" stroke="black" points="1754.06,-103.79 1757.56,-113.79 1761.06,-103.79 1754.06,-103.79"/>
</g>
<!-- FacultyRoutingModule -->
<g id="node16" class="node">
<title>FacultyRoutingModule</title>
<polygon fill="#8dd3c7" stroke="black" points="1717.16,-84.8 1714.16,-88.8 1693.16,-88.8 1690.16,-84.8 1570.84,-84.8 1570.84,-48.8 1717.16,-48.8 1717.16,-84.8"/>
<text text-anchor="middle" x="1644" y="-62.6" font-family="Times,serif" font-size="14.00">FacultyRoutingModule</text>
</g>
<!-- FacultyRoutingModule&#45;&gt;FacultyModule -->
<g id="edge13" class="edge">
<title>FacultyRoutingModule&#45;&gt;FacultyModule</title>
<path fill="none" stroke="black" d="M1694.78,-84.91C1694.78,-84.91 1694.78,-103.79 1694.78,-103.79"/>
<polygon fill="black" stroke="black" points="1691.28,-103.79 1694.78,-113.79 1698.28,-103.79 1691.28,-103.79"/>
</g>
</g>
</svg>
